<svg width="150" height="35" viewBox="0 0 150 35" fill="none" xmlns="http://www.w3.org/2000/svg">
        <g clip-path="url(#clip0_2774_2294)">
          <g clip-path="url(#clip1_2774_2294)">
            <path d="M30.6172 7.83966H34.4428V11.6652H30.6172V7.83966Z" fill="#03BFB5" />
            <path d="M30.6016 0.152344H34.4271V3.97792H30.6016V0.152344Z" fill="#03BFB5" />
            <path d="M38.2344 7.80396H42.0599V11.6295H38.2344V7.80396Z" fill="#03BFB5" />
            <path d="M34.4258 15.4555H38.2514V19.2811H34.4258V15.4555Z" fill="#03BFB5" />
            <path d="M15.2969 3.97815H19.1224V7.80372H15.2969V3.97815Z" fill="#03BFB5" />
            <path d="M22.9492 3.97815H26.7748V7.80372H22.9492V3.97815Z" fill="#03BFB5" />
            <path
              d="M22.9482 11.6286V7.80305H19.12V11.6286H15.296V7.80305H11.4704V4.53479C10.1293 4.88359 8.84208 5.41376 7.64432 6.11061C5.35202 7.44404 3.44171 9.3453 2.09742 11.6312C0.733963 13.9505 0.0102036 16.59 1.93609e-06 19.2803V19.3544C-0.00190541 23.1477 1.40552 26.8064 3.94913 29.6206C6.49274 32.4347 9.99113 34.2035 13.7653 34.5836C14.2724 34.6341 14.786 34.6596 15.306 34.6603C15.826 34.661 16.3397 34.6355 16.8471 34.5836C18.9979 34.3686 21.078 33.6966 22.9482 32.6128C25.2995 31.2503 27.2497 29.2915 28.6017 26.9341C29.288 25.7347 29.8079 24.4475 30.1471 23.108H26.7738V19.2803H22.9577V19.3544C22.9577 19.4927 22.9541 19.63 22.9471 19.7662V15.4542H26.7727V11.6286H22.9482Z"
              fill="#03BFB5" />
            <path
              d="M30.6121 19.3546V19.2806C30.6121 19.1035 30.6069 18.9281 30.6006 18.7527V15.4545H26.7734V18.7527C26.7804 18.9278 26.7845 19.1037 26.7855 19.2806H30.5995V19.9566C30.6076 19.757 30.6118 19.5563 30.6121 19.3546Z"
              fill="#03BFB5" />
            <path
              d="M49.1094 0.221863H54.7093L60.1711 13.6978L65.5773 0.221863H71.1499V19.6859H66.4088V8.01273L62.0563 19.6859H58.2302L53.85 7.98647V19.6859H49.1094V0.221863Z"
              fill="white" />
            <path d="M74.5625 0.221863H79.3036V19.6859H74.5625V0.221863Z" fill="white" />
            <path
              d="M100.151 0.221863V19.6859H95.4105L87.4789 7.68129V19.6859H82.7383V0.221863H87.4789L95.4105 12.2822V0.221863H100.151Z"
              fill="white" />
            <path d="M103.59 0.221924H108.33V19.686H103.59V0.221924Z" fill="white" />
            <path
              d="M129.179 0.221863V19.6859H124.438L116.507 7.67971V19.6859H111.766V0.221863H116.507L124.438 12.2822V0.221863H129.179Z"
              fill="white" />
            <path
              d="M149.669 6.37754H144.429C143.708 5.07433 142.377 4.3815 140.603 4.3815C137.553 4.3815 135.53 6.54458 135.53 9.92629C135.53 13.5307 137.578 15.6376 140.993 15.6376C142.052 15.6858 143.096 15.3715 143.953 14.7466C144.81 14.1218 145.428 13.2236 145.706 12.2002H139.688V8.70818H150.001V13.1163C149.386 15.1043 148.137 16.8363 146.445 18.0478C144.753 19.2592 142.711 19.8837 140.631 19.8256C134.809 19.8256 130.703 15.75 130.703 9.92787C130.703 4.10573 134.778 0.002809 140.6 0.002809C145.261 0.000707906 148.643 2.38545 149.669 6.37754Z"
              fill="white" />
            <path
              d="M49.257 33.2626C49.1899 33.1982 49.1367 33.1209 49.1006 33.0352C49.0645 32.9496 49.0462 32.8575 49.0469 32.7646C49.0466 32.6745 49.0651 32.5854 49.1013 32.5029C49.1375 32.4204 49.1905 32.3463 49.257 32.2855C49.3206 32.2209 49.3964 32.1696 49.4802 32.1347C49.5639 32.0999 49.6538 32.0822 49.7445 32.0828C49.8358 32.0809 49.9266 32.0977 50.0112 32.1323C50.0958 32.1669 50.1723 32.2186 50.2361 32.284C50.3007 32.3458 50.3519 32.4202 50.3867 32.5026C50.4214 32.585 50.439 32.6736 50.4383 32.763C50.4398 32.8553 50.4226 32.947 50.3879 33.0326C50.3531 33.1181 50.3015 33.1958 50.2361 33.261C50.1735 33.3285 50.0973 33.3821 50.0126 33.4183C49.9279 33.4545 49.8366 33.4725 49.7445 33.4711C49.6533 33.4715 49.563 33.4532 49.4791 33.4173C49.3953 33.3815 49.3197 33.3288 49.257 33.2626Z"
              fill="white" />
            <path
              d="M55.9314 33.1049C55.16 32.7896 54.4998 32.252 54.0346 31.5606C53.5851 30.8091 53.3477 29.9498 53.3477 29.0742C53.3477 28.1985 53.5851 27.3392 54.0346 26.5878C54.5022 25.8987 55.1617 25.3619 55.9314 25.044C56.8057 24.6808 57.7456 24.502 58.6922 24.5187C59.7562 24.493 60.8109 24.7223 61.7682 25.1874C62.6035 25.5928 63.2688 26.2802 63.6466 27.1283L62.8398 27.5191C62.5177 26.8356 61.9704 26.2837 61.2897 25.9559C60.4803 25.5671 59.5899 25.3769 58.6922 25.4012C57.5355 25.3402 56.392 25.6711 55.4466 26.3404C55.0423 26.6664 54.7221 27.0846 54.5126 27.5598C54.3032 28.035 54.2106 28.5535 54.2426 29.0718C54.211 29.5901 54.3038 30.1084 54.5132 30.5836C54.7227 31.0587 55.0427 31.4769 55.4466 31.8032C56.392 32.4726 57.5355 32.8035 58.6922 32.7424C59.5899 32.7665 60.4804 32.5762 61.2897 32.1872C61.9707 31.8597 62.5181 31.3077 62.8398 30.624L63.6466 31.0153C63.2703 31.8624 62.6075 32.5496 61.7745 32.9562C60.8153 33.4221 59.7583 33.6512 58.6922 33.6244C57.7463 33.6399 56.807 33.4632 55.9314 33.1049Z"
              fill="white" />
            <path
              d="M69.8854 33.1046C69.114 32.7893 68.4538 32.2518 67.9886 31.5603C67.5385 30.8091 67.3008 29.9497 67.3008 29.0739C67.3008 28.1982 67.5385 27.3388 67.9886 26.5876C68.456 25.898 69.1155 25.3609 69.8854 25.0427C71.66 24.3452 73.6329 24.3452 75.4076 25.0427C76.1774 25.3609 76.837 25.898 77.3044 26.5876C77.7539 27.339 77.9913 28.1983 77.9913 29.0739C77.9913 29.9496 77.7539 30.8089 77.3044 31.5603C76.8392 32.2518 76.179 32.7893 75.4076 33.1046C73.6314 33.7939 71.6616 33.7939 69.8854 33.1046ZM69.4006 31.8004C70.372 32.4141 71.4975 32.7398 72.6465 32.7398C73.7955 32.7398 74.921 32.4141 75.8924 31.8004C76.2962 31.474 76.6161 31.0558 76.8255 30.5806C77.0348 30.1055 77.1275 29.5872 77.0958 29.069C77.1275 28.5507 77.0348 28.0324 76.8255 27.5573C76.6161 27.0821 76.2962 26.6639 75.8924 26.3375C74.921 25.7238 73.7955 25.3981 72.6465 25.3981C71.4975 25.3981 70.372 25.7238 69.4006 26.3375C68.9963 26.6636 68.6761 27.0817 68.4666 27.5569C68.2572 28.0321 68.1646 28.5506 68.1966 29.069C68.165 29.5872 68.2578 30.1056 68.4672 30.5807C68.6767 31.0559 68.9967 31.474 69.4006 31.8004Z"
              fill="white" />
            <path
              d="M81.5234 24.6456H82.3177L86.1522 29.9908L89.972 24.6456H90.7662V33.4702H89.8837V26.2466L86.4799 31.0623H85.8097L82.4164 26.2466V33.4702H81.5234V24.6456Z"
              fill="white" />
            <path
              d="M94.6294 33.2619C94.5628 33.1973 94.5101 33.1199 94.4744 33.0343C94.4387 32.9487 94.4209 32.8567 94.4219 32.7639C94.4213 32.674 94.4394 32.585 94.4751 32.5025C94.5108 32.42 94.5634 32.3459 94.6294 32.2849C94.6931 32.2209 94.7688 32.1702 94.8522 32.1356C94.9356 32.1011 95.025 32.0835 95.1153 32.0837C95.2066 32.0818 95.2974 32.0986 95.382 32.1332C95.4666 32.1679 95.5431 32.2195 95.6069 32.2849C95.6714 32.3468 95.7225 32.4212 95.7572 32.5036C95.7919 32.586 95.8094 32.6746 95.8086 32.7639C95.8101 32.8562 95.793 32.9479 95.7584 33.0334C95.7237 33.119 95.6722 33.1967 95.6069 33.2619C95.5441 33.3292 95.4679 33.3826 95.3833 33.4188C95.2986 33.455 95.2073 33.4731 95.1153 33.472C95.0242 33.472 94.9342 33.4533 94.8506 33.4172C94.767 33.3811 94.6918 33.3282 94.6294 33.2619Z"
              fill="white" />
            <path
              d="M103.206 24.6453H103.875L108.111 33.4699H107.14L106.169 31.4655L100.912 31.4781L99.9668 33.4699H98.9688L103.206 24.6453ZM105.753 30.5809L103.547 25.9795L101.341 30.5809H105.753Z"
              fill="white" />
            <path
              d="M112.195 33.0981C111.554 32.7549 111.03 32.2282 110.689 31.5853C110.292 30.8129 110.099 29.9516 110.128 29.0834V24.6454H111.021V29.0834C111.021 30.3182 111.323 31.232 111.929 31.8248C112.25 32.1266 112.629 32.3608 113.042 32.5134C113.456 32.6661 113.896 32.7342 114.336 32.7136C115.265 32.7539 116.173 32.4383 116.877 31.8311C117.528 31.2428 117.854 30.3269 117.854 29.0834V24.6454H118.736V29.0834C118.767 29.961 118.557 30.8303 118.131 31.5979C117.757 32.2485 117.197 32.7729 116.524 33.1044C115.834 33.4376 115.077 33.6059 114.311 33.5961C113.576 33.6069 112.849 33.4359 112.195 33.0981Z"
              fill="white" />
          </g>
        </g>
        <defs>
          <clipPath id="clip0_2774_2294">
            <rect width="150" height="34.6608" fill="white" />
          </clipPath>
          <clipPath id="clip1_2774_2294">
            <rect width="150" height="34.6575" fill="white" transform="translate(0 0.00292969)" />
          </clipPath>
        </defs>
      </svg>